<?xml version="1.0" encoding="UTF-8" standalone="no"?>
<!DOCTYPE svg PUBLIC "-//W3C//DTD SVG 1.1//EN" "http://www.w3.org/Graphics/SVG/1.1/DTD/svg11.dtd">
<svg xmlns="http://www.w3.org/2000/svg" xmlns:xlink="http://www.w3.org/1999/xlink" version="1.1" width="850.39pt" height="582.39pt" viewBox="0 0 850.39 582.39">
<g enable-background="new">
<g id="Layer-1" data-name="Capa 1">
<clipPath id="cp0">
<path transform="matrix(1,0,0,-1,0,582.39)" d="M 0 582.39 L 850.39 582.39 L 850.39 0 L 0 0 Z "/>
</clipPath>
<g clip-path="url(#cp0)">
<path transform="matrix(1,0,0,-1,211.6802,361.24714)" d="M 0 0 C -3.016 3.577 -2.88 8.131 -3.571 12.341 C -4.831 20.014 -6.562 27.656 -6.279 35.516 C -6.264 35.957 -6.032 36.391 -5.899 36.835 C -4.085 36.434 -5.653 33.95 -3.207 33.497 C -2.591 37.082 -2.992 40.683 -3.011 44.255 C -.404 44.512 -4.16 67.435 -1.15 67.731 C -3.498 71.02 -1.688 88.108 -1.648 91.673 C -1.585 97.261 3.667 85.086 3.672 90.676 C 3.678 98.171 1.623 81.214 11.752 79.883 C 13.49 79.655 15.28 79.426 16.458 77.849 C 15.901 77.19 14.955 76.586 14.854 75.864 C 14.335 72.159 13.688 68.611 14.223 64.645 C 15.314 56.545 15.144 48.304 16.144 40.116 C 16.818 34.602 18.815 29.245 18.379 23.595 C 16.548 23.656 14.568 24.415 12.98 22.318 C 14.796 21.057 16.57 19.825 18.343 18.593 C 21.457 15.896 21.737 11.876 22.736 8.344 C 25.625 -1.867 29.729 -11.578 34.213 -21.135 C 42.118 -37.982 52.965 -53.021 64.273 -67.632 C 70.351 -75.486 77.709 -82.396 86.301 -87.793 C 93.01 -92.008 99.464 -96.625 106.09 -100.976 C 112.693 -105.311 119.347 -109.57 126.029 -113.781 C 127.511 -114.715 129.156 -115.451 130.812 -116.035 C 141.884 -119.938 152.953 -123.852 164.077 -127.602 C 169.633 -129.476 175.268 -131.166 181.275 -130.799 C 182.429 -130.729 183.692 -130.78 184.756 -131.175 C 193.61 -134.464 202.684 -136.436 212.165 -136.872 C 214.781 -136.992 217.278 -137.596 219.934 -136.854 C 221.883 -136.312 223.98 -136.19 226.02 -136.097 C 237.439 -135.571 248.841 -135.738 260.293 -134.589 C 272.589 -133.354 284.669 -131.364 296.664 -128.717 C 323.29 -122.838 346.976 -110.639 367.501 -92.954 C 382.857 -79.724 396.528 -64.734 408.051 -47.852 C 416.399 -35.622 422.197 -22.122 428.923 -9.075 C 429.9 -7.182 430.147 -5.169 430.144 -3.091 C 431.693 -2.393 433.147 -1.78 432.08 .496 C 431.667 1.375 432.028 2.618 432.038 3.695 C 433.517 4.653 433.458 6.365 434.034 7.767 C 435.136 6.436 436.477 5.235 437.296 3.748 C 440.214 -1.547 446.35 2.091 452.162 3.056 C 451.689 -6.893 448.333 -21.969 444.498 -31.373 C 439.02 -44.807 431.148 -56.848 424.254 -69.46 C 424.114 -69.718 423.977 -69.998 423.771 -70.196 C 415.095 -78.512 408.78 -89.046 398.797 -96.186 C 393.809 -99.753 389.574 -104.317 384.747 -108.189 C 374.152 -116.687 362.675 -123.751 350.924 -130.412 C 339.647 -136.806 327.738 -141.976 315.478 -146.047 C 302.704 -150.29 289.699 -153.85 276.235 -155.589 C 261.681 -157.47 247.127 -159.39 232.446 -158.732 C 223.111 -158.313 213.809 -157.003 204.518 -155.877 C 199.875 -155.314 195.234 -154.814 190.595 -153.995 C 169.125 -150.202 148.33 -144.253 128.144 -136.075 C 109.846 -128.662 92.499 -119.36 75.38 -109.6 C 74.616 -109.164 73.737 -108.836 73.124 -108.24 C 63.034 -98.427 51.71 -89.678 45.2 -76.73 C 43.688 -73.723 41.435 -71.505 39.077 -69.305 C 31.312 -62.061 24.199 -54.266 18.53 -45.238 C 10.999 -33.243 5.03 -20.523 .958 -6.946 C .544 -5.567 .621 -4.042 .47 -2.585 C 2.392 -2.167 4.973 -3.356 6.121 -1.409 C 6.849 -.174 6.109 1.895 6.131 3.588 C 6.155 5.333 6.228 7.086 6.425 8.818 C 6.582 10.195 8.088 10.78 9.707 10.17 C 10.772 9.77 11.773 9.146 12.866 8.888 C 14.086 8.598 14.172 9.727 14.239 10.509 C 14.314 11.388 13.99 12.462 13.067 12.526 C 11.981 12.602 10.867 12.079 9.75 11.917 C 7.235 11.554 6.337 12.126 6.209 14.31 C 6.072 16.64 6.148 18.981 6.035 21.312 C 5.95 23.055 4.008 24.089 2.213 23.521 C .868 23.094 .621 22.159 .588 20.899 C .409 13.933 1.61 6.926 0 0 " fill="#c4d8cd"/>
<path transform="matrix(1,0,0,-1,668.7461,319.23054)" d="M 0 0 C -.055 -3.222 1.177 -4.149 1.109 -7.37 C 1.072 -9.125 1.437 -11.036 .872 -12.609 C -2.216 -21.217 -2.381 -30.378 -4.415 -39.174 C -4.842 -41.021 -5.918 -42.301 -7.879 -42.656 C -13.673 -39.956 -16.211 -34.548 -18.786 -29.252 C -19.192 -28.416 -18.49 -27.041 -18.3 -25.914 C -16.167 -25.513 -14.771 -23.929 -13.519 -22.447 C -12.398 -21.122 -9.827 -20.883 -9.96 -18.101 C -12.788 -18.263 -15.393 -17.631 -17.826 -19.004 C -20.133 -16.236 -19.946 -13.035 -19.404 -9.786 C -19.066 -7.764 -18.413 -5.763 -18.334 -3.735 C -17.769 10.667 -19.115 24.916 -21.158 39.186 C -22.285 47.056 -24.382 54.678 -25.848 62.444 C -26.607 66.466 -26.626 70.594 -27.854 74.563 C -32.302 88.928 -38.766 102.449 -45.195 115.962 C -48.085 122.034 -52.01 127.61 -55.4 133.448 C -65.637 151.069 -78.544 166.64 -92.373 181.484 C -100.408 190.109 -109.635 197.446 -119.095 204.372 C -128.567 211.307 -138.522 217.666 -149.363 222.324 C -159.883 226.844 -170.695 230.65 -181.852 233.316 C -196.996 236.937 -212.311 239.339 -227.952 239.088 C -234.696 238.98 -241.375 238.428 -248.101 237.734 C -257.775 236.737 -267.218 234.866 -276.612 232.69 C -291.515 229.237 -305.821 223.882 -319.928 218.015 C -322.377 216.997 -324.694 215.657 -327.493 216.151 L -327.462 216.114 C -325.958 219.219 -323.188 220.824 -320.264 222.299 C -309.254 227.852 -298.245 233.339 -286.646 237.673 C -279.797 240.233 -273.219 243.576 -266.186 245.7 C -256.928 248.496 -247.488 250.31 -237.902 251.79 C -228.804 253.194 -219.731 253.548 -210.705 252.955 C -200.813 252.305 -190.905 251.549 -181.033 250.191 C -161.819 247.548 -144.151 240.709 -127.251 231.686 C -112.717 223.926 -99.143 214.698 -87.269 203.139 C -85.386 201.305 -83.232 199.75 -81.217 198.052 C -80.096 197.106 -78.795 196.285 -77.927 195.141 C -71.176 186.252 -62.646 178.918 -56.141 169.794 C -43.174 151.606 -30.725 133.135 -21.338 112.762 C -19.116 107.941 -16.959 103.184 -16.312 97.828 C -16.071 95.839 -15.165 93.921 -14.495 91.993 C -13.154 88.133 -11.076 84.489 -11.075 80.24 C -13.119 79.479 -13.48 79 -12.544 78.281 C -9.288 75.783 -9.423 72.223 -9.419 68.717 C -9.4 50.866 -9.383 33.016 -9.449 15.165 C -9.458 12.854 -9.587 10.416 -10.34 8.275 C -11.024 6.33 -12.635 4.71 -14.283 2.293 C -8.643 2.293 -4.96 0 0 0 " fill="#c4d8cd"/>
<path transform="matrix(1,0,0,-1,232.376,249.12403)" d="M 0 0 C -5.676 .593 -12.465 5.327 -18.104 6.65 C -18.242 8.439 -14.811 13.519 -13.979 15.147 C -12.644 17.766 -11.205 20.318 -10.992 23.383 C -10.915 24.497 -10.494 25.878 -9.727 26.606 C -3.958 32.083 -3.011 40.163 1.224 46.532 C 5.432 52.863 8.181 60.143 11.946 66.793 C 17.44 76.498 22.462 86.521 29.663 95.161 C 32.855 98.99 35.98 102.834 40.291 105.625 C 44.242 108.183 47.312 111.813 50.421 115.364 C 52.65 117.91 54.801 120.88 59.098 119.922 C 60.59 119.589 61.743 121.004 62.805 122.016 C 70.956 129.783 80.195 135.911 90.532 140.363 C 93.504 141.644 95.593 144.486 98.975 145.046 C 101.435 144.68 101.81 145.274 105.123 145.7 L 108.337 145.7 C 106.548 144.206 99.484 138.072 98.311 136.193 C 95.961 132.435 92.308 130.766 88.741 128.727 C 85.44 126.84 82.345 124.593 79.177 122.478 C 77.472 121.34 75.789 120.169 74.126 118.971 C 63.542 111.341 51.647 105.113 45.909 92.322 C 45.198 90.736 43.938 89.405 42.994 87.916 C 41.106 84.941 38.889 82.105 37.464 78.918 C 31.686 65.995 23.558 54.395 16.884 41.972 C 11.172 31.34 -.25 5.819 0 0 " fill="#c4d8cd"/>
<path transform="matrix(1,0,0,-1,211.6802,361.24714)" d="M 0 0 C 1.61 6.926 .409 13.933 .588 20.899 C .621 22.159 .868 23.094 2.213 23.521 C 4.008 24.089 5.95 23.055 6.035 21.312 C 6.148 18.981 6.072 16.64 6.209 14.31 C 6.337 12.126 7.235 11.554 9.75 11.917 C 10.867 12.079 11.981 12.602 13.067 12.526 C 13.99 12.462 14.314 11.388 14.239 10.509 C 14.172 9.727 14.086 8.598 12.866 8.888 C 11.773 9.146 10.772 9.77 9.707 10.17 C 8.088 10.78 6.582 10.195 6.425 8.818 C 6.228 7.086 6.155 5.333 6.131 3.588 C 6.109 1.895 6.849 -.174 6.121 -1.409 C 4.973 -3.356 2.392 -2.167 .47 -2.585 C .313 -1.724 .156 -.861 0 0 " fill="#c4d8cd"/>
<path transform="matrix(1,0,0,-1,649.3486,330.17683)" d="M 0 0 C -.19 -1.125 7.51 -15.111 .611 -18.306 C 3.187 -23.602 5.725 -29.01 11.519 -31.71 C 11.935 -32.315 12.354 -32.92 12.771 -33.523 C 6.96 -34.487 2.546 -32.617 -.372 -27.322 C -1.191 -25.835 -2.532 -24.635 -3.635 -23.304 C -4.933 -20.779 -2.529 -19.335 -1.904 -17.372 C -.283 -17.406 -1.286 -2.933 0 -2.493 Z " fill="#c4d8cd"/>
<path transform="matrix(1,0,0,-1,230.0596,337.6523)" d="M 0 0 C .545 -1.671 .636 -3.34 -.037 -5.002 C -1.81 -3.77 -3.583 -2.538 -5.399 -1.276 C -3.812 .82 -1.832 .062 0 0 " fill="#c4d8cd"/>
<path transform="matrix(1,0,0,-1,651.252,342.32423)" d="M 0 0 C .82 1.445 -.239 2.731 -.338 4.095 C 2.102 5.463 4.706 4.831 7.534 4.993 C 7.667 2.211 5.096 1.972 3.976 .646 C 2.724 -.835 1.327 -2.419 -.806 -2.82 L -.62 -2.964 C -.413 -1.976 -.207 -.988 0 0 " fill="#c4d8cd"/>
<path transform="matrix(1,0,0,-1,228.1382,283.3984)" d="M 0 0 C -3.391 -2.161 -8.879 -3.664 -12.62 -3.633 C -14.719 -3.616 -18.718 2.931 -18.772 4.933 C -18.858 8.146 -18.75 14.207 -18.771 17.423 C -18.824 25.315 -13.951 31.947 -13.979 39.84 C -13.987 41.945 -12.905 43.025 -10.76 42.979 C -9.883 42.959 -9.005 42.967 -8.128 42.975 C 1.853 43.066 4.014 40.857 4.648 29.912 C 3.625 29.453 2.381 29.216 2.09 27.892 C .865 22.313 -.408 16.743 -1.486 11.137 C -1.925 8.858 -2.238 1.578 0 0 " fill="#c4d8cd"/>
<path transform="matrix(1,0,0,-1,228.5195,278.46583)" d="M 0 0 C -2.239 1.579 -2.306 3.926 -1.868 6.204 C -.789 11.811 .484 17.381 1.708 22.959 C 2 24.283 3.243 24.521 4.267 24.979 C 4.96 19.54 4.883 14.064 4.318 8.652 C 3.979 5.404 4.111 1.533 0 0 " fill="#ffffff"/>
<path transform="matrix(1,0,0,-1,651.252,342.32423)" d="M 0 0 C -.207 -.988 -.413 -1.976 -.62 -2.964 C -1.906 -3.403 -2.187 -5.259 -3.808 -5.225 C -3.797 -.233 -3.797 -.233 0 0 " fill="#c4d8cd"/>
<path transform="matrix(1,0,0,-1,81.9199,295.44044)" d="M 0 0 L 2.125 0 L 2.125 -23.408 L 0 -23.408 C -.593 -20.747 -1.663 -18.398 -3.21 -16.361 C -9.106 -22.998 -16.631 -26.316 -25.786 -26.316 C -35.468 -26.316 -43.38 -23.261 -49.521 -17.149 C -55.664 -11.039 -58.734 -2.957 -58.734 7.096 C -58.734 13.699 -57.318 19.916 -54.486 25.748 C -51.654 31.58 -47.702 35.908 -42.63 38.733 C -37.559 41.559 -31.994 42.972 -25.934 42.972 C -20.928 42.972 -16.392 41.944 -12.325 39.892 C -8.258 37.838 -5.22 35.563 -3.21 33.066 C -1.795 35.858 -.938 38.75 -.642 41.74 L 1.532 41.74 L 2.125 16.41 L 0 16.41 C -1.482 25.411 -4.503 31.67 -9.064 35.186 C -13.626 38.7 -18.771 40.459 -24.501 40.459 C -31.516 40.459 -37.09 37.616 -41.223 31.934 C -45.355 26.249 -47.422 18.118 -47.422 7.539 C -47.422 -2.481 -45.167 -10.16 -40.654 -15.499 C -36.143 -20.838 -30.528 -23.507 -23.81 -23.507 C -20.221 -23.507 -16.548 -22.637 -12.794 -20.896 C -9.04 -19.154 -6.068 -16.206 -3.877 -12.05 C -1.688 -7.894 -.395 -3.877 0 0 " fill="#001a3d"/>
<path transform="matrix(1,0,0,-1,97.8037,287.0137)" d="M 0 0 C 0 -10.743 2.149 -18.81 6.446 -24.197 C 10.744 -29.585 17.19 -32.278 25.786 -32.278 C 33.327 -32.278 39.288 -29.585 43.668 -24.197 C 48.047 -18.81 50.238 -10.776 50.238 -.099 C 50.238 10.282 48.081 18.241 43.767 23.777 C 39.452 29.312 33.195 32.081 24.996 32.081 C 16.926 32.081 10.744 29.378 6.446 23.975 C 2.149 18.57 0 10.578 0 0 M -11.312 .345 C -11.312 10.66 -7.854 18.939 -.938 25.182 C 5.977 31.424 14.605 34.545 24.946 34.545 C 35.385 34.545 44.104 31.457 51.102 25.28 C 58.1 19.104 61.599 10.677 61.599 0 C 61.599 -10.349 58.248 -18.727 51.547 -25.133 C 44.845 -31.539 36.027 -34.743 25.094 -34.743 C 14.457 -34.743 5.73 -31.539 -1.087 -25.133 C -7.904 -18.727 -11.312 -10.234 -11.312 .345 " fill="#001a3d"/>
<path transform="matrix(1,0,0,-1,202.0601,308.9931)" d="M 0 0 L 24.403 55.293 L 44.952 55.293 L 44.952 53.025 L 42.482 53.025 C 39.189 53.025 37.032 52.755 36.011 52.213 C 34.99 51.671 34.307 50.66 33.961 49.182 C 33.615 47.703 33.442 44.188 33.442 38.636 L 33.442 5.864 C 33.442 .607 33.574 -2.833 33.838 -4.46 C 34.101 -6.086 34.768 -7.293 35.838 -8.082 C 36.908 -8.87 38.958 -9.265 41.988 -9.265 L 44.952 -9.265 L 44.952 -11.531 L 12.942 -11.531 L 12.942 -9.265 L 15.313 -9.265 C 18.146 -9.265 20.113 -8.903 21.216 -8.181 C 22.319 -7.458 23.027 -6.332 23.34 -4.805 C 23.653 -3.276 23.81 .279 23.81 5.864 L 23.81 48.394 L -2.717 -11.531 L -5.039 -11.531 L -31.763 48.394 L -31.763 9.265 C -31.763 3.909 -31.599 .263 -31.269 -1.675 C -30.94 -3.614 -29.919 -5.314 -28.207 -6.775 C -26.495 -8.238 -24.09 -9.067 -20.994 -9.265 L -20.994 -11.531 L -44.952 -11.531 L -44.952 -9.265 C -42.087 -9.101 -39.758 -8.32 -37.962 -6.924 C -36.168 -5.527 -35.073 -3.812 -34.678 -1.773 C -34.282 .263 -34.085 4.041 -34.085 9.561 L -34.085 38.636 C -34.085 43.958 -34.241 47.391 -34.554 48.936 C -34.867 50.479 -35.526 51.547 -36.53 52.139 C -37.535 52.73 -39.733 53.025 -43.125 53.025 L -44.952 53.025 L -44.952 55.293 L -24.551 55.293 Z " fill="#001a3d"/>
<path transform="matrix(1,0,0,-1,262.7969,286.62013)" d="M 0 0 L 4.792 0 C 8.645 0 11.757 .386 14.128 1.158 C 16.499 1.93 18.475 3.549 20.056 6.013 C 21.636 8.477 22.427 11.515 22.427 15.13 C 22.427 20.648 21.068 24.697 18.351 27.277 C 15.634 29.855 11.229 31.146 5.137 31.146 C 2.897 31.146 1.186 31.079 0 30.948 Z M 0 -2.464 L 0 -16.509 C 0 -21.766 .124 -25.206 .371 -26.833 C .617 -28.459 1.284 -29.666 2.371 -30.455 C 3.458 -31.243 5.5 -31.638 8.497 -31.638 L 10.719 -31.638 L 10.719 -33.904 L -19.957 -33.904 L -19.957 -31.638 L -18.179 -31.638 C -15.313 -31.638 -13.33 -31.276 -12.226 -30.554 C -11.123 -29.831 -10.423 -28.705 -10.127 -27.178 C -9.83 -25.649 -9.682 -22.094 -9.682 -16.509 L -9.682 16.263 C -9.682 21.585 -9.83 25.018 -10.127 26.562 C -10.423 28.106 -11.082 29.174 -12.103 29.766 C -13.124 30.357 -15.331 30.652 -18.722 30.652 L -19.957 30.652 L -19.957 32.92 L -11.559 33.215 C -4.841 33.444 .395 33.561 4.149 33.561 C 11.065 33.561 16.392 33.019 20.129 31.934 C 23.867 30.85 26.93 28.928 29.318 26.168 C 31.705 23.408 32.899 19.926 32.899 15.721 C 32.899 12.074 32.084 8.854 30.454 6.062 C 28.824 3.27 26.485 1.15 23.439 -.295 C 20.393 -1.741 15.033 -2.464 7.36 -2.464 Z " fill="#001a3d"/>
<path transform="matrix(1,0,0,-1,320.4707,293.66703)" d="M 0 0 L -11.855 28.484 L -23.662 0 Z M .84 -2.218 L -24.6 -2.218 L -26.329 -6.455 C -28.898 -12.6 -30.182 -16.607 -30.182 -18.479 C -30.182 -20.484 -29.499 -22.003 -28.132 -23.038 C -26.766 -24.073 -25.012 -24.591 -22.871 -24.591 L -22.871 -26.857 L -42.779 -26.857 L -42.779 -24.591 C -39.815 -24.131 -37.609 -23.088 -36.159 -21.461 C -34.71 -19.835 -32.965 -16.41 -30.923 -11.187 C -30.759 -10.693 -29.968 -8.788 -28.552 -5.47 L -9.089 40.902 L -7.163 40.902 L 15.215 -12.172 L 18.277 -19.17 C 18.969 -20.747 19.899 -21.987 21.068 -22.891 C 22.237 -23.794 23.991 -24.361 26.329 -24.591 L 26.329 -26.857 L 0 -26.857 L 0 -24.591 C 3.227 -24.591 5.409 -24.353 6.545 -23.876 C 7.682 -23.4 8.25 -22.455 8.25 -21.042 C 8.25 -20.32 7.492 -18.168 5.977 -14.587 Z " fill="#001a3d"/>
<path transform="matrix(1,0,0,-1,359.6699,286.02833)" d="M 0 0 C 2.47 .065 5.021 .164 7.657 .296 C 10.291 .427 12.58 .788 14.523 1.38 C 16.466 1.971 18.038 2.834 19.24 3.967 C 20.442 5.101 21.389 6.587 22.081 8.427 C 22.772 10.267 23.118 12.533 23.118 15.228 C 23.118 19.926 21.94 23.687 19.586 26.513 C 17.231 29.338 12.103 30.751 4.199 30.751 C 2.98 30.751 1.581 30.685 0 30.554 Z M 50.633 -34.496 L 32.603 -34.496 C 29.408 -32.263 24.518 -26.414 17.931 -16.952 C 15.823 -13.93 13.634 -11.031 11.361 -8.255 C 9.089 -5.479 7.524 -3.787 6.668 -3.179 C 5.812 -2.571 4.478 -2.267 2.667 -2.267 L 0 -2.267 L 0 -17.101 C 0 -22.357 .124 -25.798 .37 -27.425 C .617 -29.051 1.276 -30.258 2.346 -31.047 C 3.416 -31.835 5.466 -32.229 8.496 -32.229 L 11.707 -32.229 L 11.707 -34.496 L -20.352 -34.496 L -20.352 -32.229 L -18.179 -32.229 C -15.313 -32.229 -13.33 -31.868 -12.226 -31.146 C -11.123 -30.423 -10.423 -29.297 -10.127 -27.77 C -9.831 -26.241 -9.682 -22.686 -9.682 -17.101 L -9.682 15.671 C -9.682 20.993 -9.831 24.426 -10.127 25.971 C -10.423 27.515 -11.083 28.582 -12.103 29.174 C -13.124 29.766 -15.331 30.061 -18.722 30.061 L -19.858 30.061 L -19.858 32.328 L -10.275 32.82 C -3.886 33.116 1.186 33.264 4.939 33.264 C 11.328 33.264 16.523 32.673 20.525 31.49 C 24.526 30.308 27.762 28.368 30.231 25.675 C 32.701 22.98 33.937 19.762 33.937 16.016 C 33.937 11.646 32.322 7.917 29.095 4.829 C 25.868 1.741 21.125 -.181 14.869 -.937 C 17.667 -2.284 22.18 -7.146 28.404 -15.523 C 33.475 -22.324 37.46 -26.776 40.358 -28.878 C 43.255 -30.981 46.681 -32.099 50.633 -32.229 Z " fill="#001a3d"/>
<path transform="matrix(1,0,0,-1,395.6084,269.76564)" d="M 0 0 L -2.272 0 L -1.926 16.065 L 63.082 16.065 L 63.428 0 L 61.304 0 C 60.545 4.401 59.508 7.58 58.191 9.535 C 56.874 11.489 55.457 12.689 53.943 13.133 C 52.428 13.576 49.843 13.798 46.188 13.798 L 35.419 13.798 L 35.419 -33.363 C 35.419 -38.587 35.542 -42.021 35.789 -43.662 C 36.036 -45.306 36.703 -46.521 37.79 -47.31 C 38.877 -48.098 40.918 -48.492 43.915 -48.492 L 47.176 -48.492 L 47.176 -50.759 L 13.782 -50.759 L 13.782 -48.492 L 17.24 -48.492 C 20.105 -48.492 22.089 -48.131 23.192 -47.408 C 24.295 -46.686 25.003 -45.56 25.317 -44.032 C 25.629 -42.504 25.786 -38.948 25.786 -33.363 L 25.786 13.798 L 15.857 13.798 C 11.542 13.798 8.645 13.593 7.163 13.183 C 5.681 12.771 4.29 11.531 2.989 9.462 C 1.687 7.392 .692 4.238 0 0 " fill="#001a3d"/>
<path transform="matrix(1,0,0,-1,509.6953,299.72853)" d="M 0 0 L 2.371 0 L .938 -20.796 L -54.535 -20.796 L -54.535 -18.529 L -53.152 -18.529 C -49.826 -18.529 -47.678 -18.086 -46.706 -17.198 C -45.734 -16.312 -45.117 -15.187 -44.854 -13.823 C -44.59 -12.46 -44.458 -8.985 -44.458 -3.4 L -44.458 29.371 C -44.458 34.463 -44.599 37.814 -44.878 39.425 C -45.158 41.034 -45.8 42.159 -46.805 42.8 C -47.81 43.44 -49.925 43.761 -53.152 43.761 L -53.152 46.028 L -5.285 46.028 L -3.704 29.371 L -6.026 29.371 C -7.081 34.036 -8.373 37.346 -9.904 39.301 C -11.436 41.256 -13.256 42.487 -15.362 42.997 C -17.471 43.506 -20.862 43.761 -25.538 43.761 L -34.825 43.761 L -34.825 15.721 L -27.712 15.721 C -24.452 15.721 -22.172 15.999 -20.87 16.559 C -19.57 17.116 -18.714 17.963 -18.302 19.097 C -17.891 20.229 -17.685 22.438 -17.685 25.725 L -15.362 25.725 L -15.362 2.858 L -17.685 2.858 C -17.685 6.57 -17.998 9.06 -18.623 10.324 C -19.249 11.589 -20.163 12.41 -21.364 12.788 C -22.567 13.166 -24.6 13.355 -27.465 13.355 L -34.825 13.355 L -34.825 -2.464 C -34.825 -10.382 -34.315 -15.039 -33.294 -16.435 C -32.273 -17.831 -29.523 -18.529 -25.045 -18.529 L -20.056 -18.529 C -16.532 -18.529 -13.634 -18.078 -11.361 -17.174 C -9.089 -16.271 -6.924 -14.414 -4.865 -11.605 C -2.808 -8.796 -1.186 -4.928 0 0 " fill="#001a3d"/>
<path transform="matrix(1,0,0,-1,510.6104,269.76564)" d="M 0 0 L -2.272 0 L -1.927 16.065 L 63.082 16.065 L 63.428 0 L 61.304 0 C 60.545 4.401 59.508 7.58 58.191 9.535 C 56.874 11.489 55.457 12.689 53.943 13.133 C 52.428 13.576 49.843 13.798 46.188 13.798 L 35.419 13.798 L 35.419 -33.363 C 35.419 -38.587 35.542 -42.021 35.789 -43.662 C 36.036 -45.306 36.703 -46.521 37.79 -47.31 C 38.877 -48.098 40.918 -48.492 43.915 -48.492 L 47.176 -48.492 L 47.176 -50.759 L 13.782 -50.759 L 13.782 -48.492 L 17.24 -48.492 C 20.105 -48.492 22.089 -48.131 23.192 -47.408 C 24.296 -46.686 25.003 -45.56 25.316 -44.032 C 25.629 -42.504 25.786 -38.948 25.786 -33.363 L 25.786 13.798 L 15.857 13.798 C 11.542 13.798 8.645 13.593 7.163 13.183 C 5.681 12.771 4.289 11.531 2.989 9.462 C 1.687 7.392 .691 4.238 0 0 " fill="#001a3d"/>
<path transform="matrix(1,0,0,-1,620.4004,253.70023)" d="M 0 0 L 22.377 0 L 22.377 -2.268 C 19.413 -2.465 17.198 -3.13 15.732 -4.263 C 14.267 -5.396 13.369 -6.67 13.041 -8.082 C 12.711 -9.495 12.547 -12.239 12.547 -16.312 L 12.547 -38.537 C 12.547 -44.222 12.324 -48.442 11.88 -51.202 C 11.436 -53.962 10.15 -56.673 8.026 -59.334 C 5.902 -61.995 2.914 -64.114 -.939 -65.69 C -4.792 -67.268 -9.238 -68.057 -14.276 -68.057 C -20.237 -68.057 -25.284 -67.046 -29.417 -65.025 C -33.55 -63.005 -36.498 -60.394 -38.26 -57.19 C -40.021 -53.986 -40.902 -49.691 -40.902 -44.303 L -40.853 -37.453 L -40.853 -16.657 C -40.853 -11.335 -41.01 -7.902 -41.322 -6.357 C -41.636 -4.813 -42.294 -3.746 -43.298 -3.154 C -44.303 -2.563 -46.501 -2.268 -49.893 -2.268 L -51.424 -2.268 L -51.424 0 L -20.847 0 L -20.847 -2.268 L -22.181 -2.268 C -25.474 -2.268 -27.631 -2.538 -28.651 -3.08 C -29.673 -3.622 -30.355 -4.633 -30.701 -6.111 C -31.047 -7.59 -31.22 -11.105 -31.22 -16.657 L -31.22 -37.699 C -31.22 -44.993 -30.883 -50.168 -30.207 -53.223 C -29.533 -56.278 -27.631 -58.948 -24.502 -61.23 C -21.374 -63.515 -17.208 -64.656 -12.004 -64.656 C -7.921 -64.656 -4.208 -63.892 -.865 -62.364 C 2.478 -60.837 4.964 -58.932 6.594 -56.647 C 8.225 -54.365 9.22 -52.016 9.583 -49.601 C 9.944 -47.187 10.126 -43.384 10.126 -38.192 L 10.126 -15.425 C 10.126 -11.647 9.911 -9.003 9.484 -7.491 C 9.056 -5.98 8.133 -4.78 6.718 -3.894 C 5.302 -3.007 3.063 -2.465 0 -2.268 Z " fill="#001a3d"/>
<path transform="matrix(1,0,0,-1,658.8086,286.62013)" d="M 0 0 L 4.792 0 C 8.645 0 11.757 .386 14.128 1.158 C 16.499 1.93 18.475 3.549 20.056 6.013 C 21.637 8.477 22.427 11.515 22.427 15.13 C 22.427 20.648 21.068 24.697 18.352 27.277 C 15.635 29.855 11.229 31.146 5.138 31.146 C 2.897 31.146 1.186 31.079 0 30.948 Z M 0 -2.464 L 0 -16.509 C 0 -21.766 .123 -25.206 .37 -26.833 C .617 -28.459 1.284 -29.666 2.371 -30.455 C 3.458 -31.243 5.499 -31.638 8.496 -31.638 L 10.72 -31.638 L 10.72 -33.904 L -19.957 -33.904 L -19.957 -31.638 L -18.179 -31.638 C -15.313 -31.638 -13.33 -31.276 -12.227 -30.554 C -11.123 -29.831 -10.423 -28.705 -10.127 -27.178 C -9.83 -25.649 -9.682 -22.094 -9.682 -16.509 L -9.682 16.263 C -9.682 21.585 -9.83 25.018 -10.127 26.562 C -10.423 28.106 -11.082 29.174 -12.103 29.766 C -13.124 30.357 -15.33 30.652 -18.722 30.652 L -19.957 30.652 L -19.957 32.92 L -11.56 33.215 C -4.841 33.444 .396 33.561 4.149 33.561 C 11.065 33.561 16.392 33.019 20.13 31.934 C 23.867 30.85 26.93 28.928 29.317 26.168 C 31.705 23.408 32.899 19.926 32.899 15.721 C 32.899 12.074 32.084 8.854 30.454 6.062 C 28.823 3.27 26.485 1.15 23.439 -.295 C 20.393 -1.741 15.033 -2.464 7.36 -2.464 Z " fill="#001a3d"/>
<path transform="matrix(1,0,0,-1,685.6582,255.9678)" d="M 0 0 L 0 2.268 L 30.627 2.268 L 30.627 0 L 29.194 0 C 25.9 0 23.743 -.271 22.723 -.812 C 21.702 -1.354 21.019 -2.365 20.673 -3.844 C 20.327 -5.322 20.154 -8.838 20.154 -14.39 L 20.154 -47.161 C 20.154 -52.418 20.278 -55.858 20.524 -57.485 C 20.771 -59.111 21.431 -60.318 22.501 -61.107 C 23.57 -61.896 25.62 -62.29 28.65 -62.29 L 30.627 -62.29 L 30.627 -64.557 L 0 -64.557 L 0 -62.29 L 1.976 -62.29 C 4.841 -62.29 6.824 -61.929 7.929 -61.206 C 9.031 -60.483 9.731 -59.357 10.027 -57.83 C 10.324 -56.302 10.473 -52.746 10.473 -47.161 L 10.473 -14.39 C 10.473 -9.067 10.324 -5.635 10.027 -4.09 C 9.731 -2.546 9.072 -1.479 8.052 -.887 C 7.03 -.295 4.824 0 1.433 0 Z " fill="#001a3d"/>
<path transform="matrix(1,0,0,-1,715.2744,319.8349)" d="M 0 0 L 0 21.486 L 2.47 21.486 C 5.269 7.491 11.905 .493 22.377 .493 C 27.086 .493 30.733 1.831 33.319 4.51 C 35.903 7.187 37.196 10.185 37.196 13.503 C 37.196 16.854 36.061 19.663 33.788 21.93 C 31.516 24.164 27.366 26.562 21.34 29.125 C 15.972 31.424 11.921 33.438 9.188 35.162 C 6.454 36.887 4.322 39.129 2.791 41.889 C 1.26 44.648 .494 47.588 .494 50.71 C .494 55.473 2.148 59.44 5.458 62.611 C 8.768 65.781 12.958 67.366 18.03 67.366 C 20.862 67.366 23.529 66.906 26.032 65.986 C 28.535 65.066 31.104 63.16 33.739 60.271 C 35.253 62.076 36.11 64.031 36.308 66.135 L 38.481 66.135 L 38.481 48.64 L 36.308 48.64 C 35.056 53.732 32.841 57.74 29.663 60.664 C 26.485 63.588 22.805 65.05 18.623 65.05 C 14.638 65.05 11.715 63.974 9.854 61.822 C 7.994 59.67 7.063 57.313 7.063 54.751 C 7.063 51.662 8.232 49.051 10.571 46.915 C 12.876 44.747 17.042 42.315 23.068 39.622 C 28.831 37.06 33.022 34.997 35.641 33.438 C 38.259 31.876 40.358 29.717 41.938 26.957 C 43.52 24.197 44.31 21.01 44.31 17.396 C 44.31 11.68 42.399 7.03 38.58 3.45 C 34.759 -.131 29.655 -1.922 23.267 -1.922 C 15.922 -1.922 9.797 .888 4.891 6.506 C 3.804 4.961 2.996 2.793 2.47 0 Z " fill="#001a3d"/>
<path transform="matrix(1,0,0,-1,771.3184,287.0137)" d="M 0 0 C 0 -10.743 2.148 -18.81 6.446 -24.197 C 10.744 -29.585 17.19 -32.278 25.786 -32.278 C 33.327 -32.278 39.288 -29.585 43.668 -24.197 C 48.047 -18.81 50.238 -10.776 50.238 -.099 C 50.238 10.282 48.08 18.241 43.767 23.777 C 39.452 29.312 33.195 32.081 24.995 32.081 C 16.927 32.081 10.744 29.378 6.446 23.975 C 2.148 18.57 0 10.578 0 0 M -11.313 .345 C -11.313 10.66 -7.854 18.939 -.938 25.182 C 5.978 31.424 14.604 34.545 24.946 34.545 C 35.385 34.545 44.104 31.457 51.103 25.28 C 58.1 19.104 61.6 10.677 61.6 0 C 61.6 -10.349 58.248 -18.727 51.547 -25.133 C 44.845 -31.539 36.027 -34.743 25.094 -34.743 C 14.457 -34.743 5.73 -31.539 -1.087 -25.133 C -7.903 -18.727 -11.313 -10.234 -11.313 .345 " fill="#001a3d"/>
<path transform="matrix(1,0,0,-1,279.3301,340.23243)" d="M 0 0 C -.053 1.313 -.31 2.456 -.771 3.427 C -1.232 4.397 -1.858 5.212 -2.649 5.869 C -3.44 6.526 -4.383 7.019 -5.476 7.348 C -6.57 7.676 -7.764 7.84 -9.055 7.84 C -9.846 7.84 -10.696 7.739 -11.605 7.54 C -12.515 7.34 -13.358 6.99 -14.136 6.49 C -14.914 5.99 -15.553 5.319 -16.053 4.477 C -16.555 3.634 -16.805 2.584 -16.805 1.328 C -16.805 .1 -16.528 -.9 -15.975 -1.671 C -15.421 -2.442 -14.696 -3.063 -13.8 -3.535 C -12.904 -4.006 -11.875 -4.385 -10.715 -4.67 C -9.556 -4.956 -8.382 -5.228 -7.196 -5.484 C -5.984 -5.741 -4.804 -6.049 -3.657 -6.405 C -2.511 -6.763 -1.482 -7.248 -.573 -7.862 C .336 -8.477 1.068 -9.276 1.622 -10.262 C 2.175 -11.247 2.452 -12.482 2.452 -13.968 C 2.452 -15.567 2.135 -16.909 1.503 -17.995 C .87 -19.08 .072 -19.966 -.89 -20.651 C -1.852 -21.337 -2.919 -21.829 -4.092 -22.129 C -5.266 -22.429 -6.393 -22.579 -7.473 -22.579 C -9.134 -22.579 -10.689 -22.386 -12.139 -22.001 C -13.589 -21.615 -14.854 -20.987 -15.935 -20.115 C -17.016 -19.244 -17.866 -18.123 -18.485 -16.752 C -19.105 -15.381 -19.401 -13.71 -19.375 -11.739 L -17.635 -11.739 C -17.714 -13.425 -17.491 -14.846 -16.963 -16.002 C -16.436 -17.159 -15.705 -18.109 -14.769 -18.852 C -13.833 -19.595 -12.732 -20.13 -11.467 -20.458 C -10.201 -20.787 -8.871 -20.951 -7.473 -20.951 C -6.63 -20.951 -5.727 -20.837 -4.765 -20.608 C -3.803 -20.38 -2.919 -19.994 -2.115 -19.451 C -1.312 -18.909 -.639 -18.194 -.099 -17.31 C .441 -16.424 .712 -15.311 .712 -13.968 C .712 -12.682 .435 -11.633 -.119 -10.818 C -.672 -10.004 -1.403 -9.348 -2.313 -8.848 C -3.222 -8.348 -4.25 -7.948 -5.397 -7.647 C -6.544 -7.348 -7.724 -7.069 -8.936 -6.812 C -10.122 -6.556 -11.295 -6.256 -12.455 -5.913 C -13.616 -5.57 -14.644 -5.106 -15.54 -4.521 C -16.436 -3.936 -17.161 -3.178 -17.714 -2.25 C -18.268 -1.321 -18.544 -.129 -18.544 1.328 C -18.544 2.784 -18.262 4.034 -17.694 5.077 C -17.128 6.119 -16.39 6.962 -15.48 7.604 C -14.571 8.247 -13.549 8.719 -12.416 9.019 C -11.283 9.318 -10.162 9.468 -9.055 9.468 C -7.579 9.468 -6.202 9.289 -4.923 8.933 C -3.645 8.575 -2.524 8.019 -1.562 7.262 C -.6 6.505 .171 5.526 .751 4.327 C 1.331 3.127 1.661 1.685 1.74 0 Z " fill="#001a3d"/>
<path transform="matrix(1,0,0,-1,296.1348,331.49223)" d="M 0 0 L 1.74 0 L 1.74 -13.882 L 19.771 -13.882 L 19.771 0 L 21.51 0 L 21.51 -30.591 L 19.771 -30.591 L 19.771 -15.51 L 1.74 -15.51 L 1.74 -30.591 L 0 -30.591 Z " fill="#001a3d"/>
<path transform="matrix(1,0,0,-1,348.4077,350.64363)" d="M 0 0 L -6.05 17.309 L -6.129 17.309 L -12.416 0 Z M -7.078 19.151 L -5.18 19.151 L 5.971 -11.439 L 4.112 -11.439 L .554 -1.628 L -12.97 -1.628 L -16.568 -11.439 L -18.426 -11.439 Z " fill="#001a3d"/>
<path transform="matrix(1,0,0,-1,378.498,346.53034)" d="M 0 0 C 1.028 0 1.983 .135 2.867 .406 C 3.75 .678 4.507 1.099 5.14 1.671 C 5.773 2.241 6.273 2.97 6.643 3.855 C 7.012 4.74 7.196 5.798 7.196 7.026 C 7.196 8.168 6.999 9.146 6.603 9.961 C 6.208 10.774 5.68 11.438 5.021 11.953 C 4.362 12.467 3.598 12.838 2.728 13.066 C 1.858 13.295 .949 13.409 0 13.409 L -10.043 13.409 L -10.043 0 Z M -11.783 15.038 L 0 15.038 C 1.239 15.038 2.398 14.901 3.479 14.631 C 4.56 14.358 5.509 13.916 6.327 13.303 C 7.143 12.688 7.783 11.881 8.244 10.882 C 8.705 9.882 8.936 8.64 8.936 7.154 C 8.936 5.098 8.402 3.362 7.335 1.949 C 6.267 .535 4.784 -.343 2.886 -.686 L 2.886 -.771 C 4.178 -.943 5.2 -1.314 5.951 -1.886 C 6.702 -2.457 7.262 -3.157 7.631 -3.985 C 8 -4.813 8.237 -5.728 8.343 -6.727 C 8.448 -7.728 8.501 -8.727 8.501 -9.726 L 8.501 -11.482 C 8.501 -12.055 8.527 -12.59 8.58 -13.089 C 8.633 -13.589 8.719 -14.053 8.837 -14.481 C 8.956 -14.91 9.12 -15.268 9.332 -15.553 L 7.394 -15.553 C 7.024 -14.839 6.821 -14.004 6.781 -13.046 C 6.742 -12.09 6.722 -11.097 6.722 -10.068 C 6.722 -9.04 6.682 -8.02 6.603 -7.006 C 6.524 -5.992 6.273 -5.085 5.852 -4.285 C 5.43 -3.485 4.765 -2.843 3.855 -2.356 C 2.946 -1.871 1.661 -1.629 0 -1.629 L -10.043 -1.629 L -10.043 -15.553 L -11.783 -15.553 Z " fill="#001a3d"/>
<path transform="matrix(1,0,0,-1,401.9453,331.49223)" d="M 0 0 L 18.979 0 L 18.979 -1.629 L 1.74 -1.629 L 1.74 -13.882 L 17.952 -13.882 L 17.952 -15.51 L 1.74 -15.51 L 1.74 -28.963 L 19.177 -28.963 L 19.177 -30.591 L 0 -30.591 Z " fill="#001a3d"/>
<path transform="matrix(1,0,0,-1,463.5898,344.4316)" d="M 0 0 C .58 .399 1.173 .836 1.779 1.307 C 2.386 1.778 2.946 2.299 3.46 2.871 C 3.975 3.441 4.396 4.084 4.726 4.799 C 5.055 5.513 5.22 6.298 5.22 7.155 C 5.22 7.727 5.088 8.248 4.824 8.719 C 4.561 9.19 4.225 9.598 3.816 9.94 C 3.407 10.283 2.939 10.547 2.412 10.732 C 1.885 10.918 1.345 11.011 .791 11.011 C .237 11.011 -.303 10.918 -.83 10.732 C -1.357 10.547 -1.825 10.283 -2.233 9.94 C -2.643 9.598 -2.979 9.19 -3.242 8.719 C -3.506 8.248 -3.638 7.727 -3.638 7.155 C -3.638 6.412 -3.506 5.72 -3.242 5.077 C -2.979 4.435 -2.662 3.82 -2.293 3.235 C -1.924 2.649 -1.528 2.092 -1.106 1.564 C -.686 1.035 -.316 .515 0 0 M -7.156 -10.368 C -7.156 -11.368 -6.959 -12.268 -6.563 -13.067 C -6.168 -13.867 -5.647 -14.538 -5.002 -15.081 C -4.355 -15.624 -3.624 -16.038 -2.807 -16.323 C -1.99 -16.609 -1.146 -16.752 -.276 -16.752 C .91 -16.752 1.944 -16.502 2.827 -16.002 C 3.71 -15.503 4.442 -14.952 5.022 -14.353 C 5.602 -13.753 6.036 -13.188 6.327 -12.66 C 6.616 -12.132 6.762 -11.839 6.762 -11.782 L -.514 -1.971 C -1.252 -2.484 -2.01 -3.006 -2.787 -3.534 C -3.565 -4.063 -4.277 -4.655 -4.923 -5.312 C -5.568 -5.97 -6.103 -6.705 -6.523 -7.519 C -6.946 -8.333 -7.156 -9.283 -7.156 -10.368 M -8.659 -10.368 C -8.659 -9.111 -8.429 -8.012 -7.967 -7.069 C -7.506 -6.126 -6.919 -5.284 -6.208 -4.541 C -5.496 -3.799 -4.705 -3.127 -3.835 -2.527 C -2.965 -1.928 -2.122 -1.343 -1.305 -.771 C -1.753 -.171 -2.201 .421 -2.648 1.007 C -3.098 1.592 -3.506 2.207 -3.875 2.85 C -4.244 3.492 -4.547 4.163 -4.784 4.863 C -5.021 5.562 -5.14 6.326 -5.14 7.155 C -5.14 7.954 -4.969 8.676 -4.626 9.318 C -4.283 9.961 -3.835 10.511 -3.281 10.968 C -2.728 11.425 -2.096 11.782 -1.384 12.039 C -.672 12.297 .053 12.425 .791 12.425 C 1.556 12.425 2.294 12.311 3.006 12.082 C 3.717 11.854 4.35 11.518 4.903 11.075 C 5.457 10.632 5.898 10.083 6.229 9.426 C 6.558 8.769 6.723 8.012 6.723 7.155 C 6.723 6.069 6.544 5.127 6.188 4.327 C 5.833 3.527 5.378 2.807 4.824 2.164 C 4.271 1.521 3.645 .936 2.946 .407 C 2.247 -.122 1.556 -.657 .87 -1.199 L 7.592 -10.153 C 7.882 -9.354 8.112 -8.525 8.284 -7.669 C 8.455 -6.812 8.541 -5.941 8.541 -5.056 L 10.044 -5.056 C 9.99 -6.169 9.839 -7.276 9.589 -8.376 C 9.338 -9.476 9.016 -10.525 8.62 -11.524 L 13.207 -17.651 L 11.19 -17.651 L 7.75 -13.11 C 6.881 -14.681 5.76 -15.916 4.39 -16.815 C 3.019 -17.716 1.464 -18.165 -.276 -18.165 C -1.463 -18.165 -2.563 -18.001 -3.578 -17.673 C -4.593 -17.345 -5.476 -16.858 -6.228 -16.216 C -6.979 -15.573 -7.571 -14.76 -8.007 -13.774 C -8.441 -12.789 -8.659 -11.653 -8.659 -10.368 " fill="#001a3d"/>
<path transform="matrix(1,0,0,-1,510.8008,331.49223)" d="M 0 0 L 1.739 0 L 1.739 -28.963 L 17.754 -28.963 L 17.754 -30.591 L 0 -30.591 Z " fill="#001a3d"/>
<path transform="matrix(1,0,0,-1,0,582.39)" d="M 540.892 250.898 L 542.63107 250.898 L 542.63107 220.30699 L 540.892 220.30699 Z " fill="#001a3d"/>
<path transform="matrix(1,0,0,-1,566.3955,360.4551)" d="M 0 0 L .079 0 L 9.846 28.963 L 11.585 28.963 L 1.027 -1.628 L -.989 -1.628 L -11.507 28.963 L -9.688 28.963 Z " fill="#001a3d"/>
<path transform="matrix(1,0,0,-1,590.2393,331.49223)" d="M 0 0 L 18.979 0 L 18.979 -1.629 L 1.739 -1.629 L 1.739 -13.882 L 17.951 -13.882 L 17.951 -15.51 L 1.739 -15.51 L 1.739 -28.963 L 19.178 -28.963 L 19.178 -30.591 L 0 -30.591 Z " fill="#001a3d"/>
</g>
</g>
</g>
</svg>
